<svg width="134" height="32" viewBox="0 0 134 32" fill="none" xmlns="http://www.w3.org/2000/svg">
    <g clip-path="url(#clip0_3_113)">
        <path
            d="M48.7383 10.5456C50.3631 7.0385 51.9329 3.50491 53.5642 0C53.8786 0.163224 54.1908 0.328655 54.5052 0.494085C52.8694 3.98576 51.2997 7.50832 49.6639 11C49.3561 10.85 49.0476 10.6985 48.7383 10.5456ZM72.1602 0H75.2615C75.2593 3.17491 75.2586 6.35056 75.2593 9.52695C75.9396 9.52695 76.6177 9.52918 77.2958 9.52918C77.2958 9.83464 77.2958 10.1423 77.2979 10.45H72.0819C72.0798 10.1423 72.0798 9.83464 72.0819 9.52918H74.1314C74.1292 6.66047 74.1292 3.79101 74.1314 0.920807H72.1602V0ZM81.2139 1.34209C81.6853 1.26726 82.1568 1.18803 82.626 1.1C82.3344 1.76907 82.3147 2.50637 82.2248 3.21946H84.5556C84.5556 3.52759 84.5578 3.83351 84.5578 4.14163C83.7597 4.14163 82.9637 4.14383 82.1655 4.14163C82.1085 5.39614 81.9682 6.64846 82.0077 7.90517C82.0449 8.462 82.1151 9.20811 82.7291 9.4282C83.5163 9.70111 84.2881 9.23451 84.913 8.80313L85.2617 9.70111C84.3056 10.357 83.0273 10.7069 81.9265 10.2271C81.2227 9.89258 80.999 9.06064 80.9201 8.34755C80.7863 6.94778 80.9924 5.5436 81.0385 4.14163H79.4948C79.4948 3.83351 79.4948 3.52759 79.497 3.21946H81.1021C81.1372 2.5944 81.1744 1.96862 81.2139 1.34209ZM40.5088 4.88478C42.6844 3.71261 44.8601 2.54269 47.0357 1.375C47.0379 1.75377 47.0379 2.13029 47.0379 2.50682C45.2688 3.43469 43.4968 4.35734 41.7219 5.27475C43.469 6.39313 45.2996 7.36583 47.0907 8.40801V9.625C44.8974 8.29819 42.6669 7.03413 40.5 5.66025C40.5022 5.4675 40.5066 5.07977 40.5088 4.88478ZM86.9358 1.375C89.1224 2.543 91.3082 3.7125 93.4934 4.88349C93.4956 5.08077 93.4978 5.47534 93.5 5.67262C91.3332 7.04015 89.1025 8.30007 86.9093 9.625V8.40767C88.6992 7.36521 90.5287 6.39225 92.2744 5.27805C90.489 4.36338 88.7146 3.43077 86.9336 2.51161C86.9336 2.13274 86.9336 1.75387 86.9358 1.375ZM56.8808 3.82719C57.6155 2.98219 58.8787 2.96903 59.918 3.0656C60.7403 3.16383 61.5033 3.53573 62.0794 4.11911C61.8398 4.40882 61.6001 4.69634 61.3694 4.99264C60.7557 3.90401 59.1542 3.5704 58.0679 4.13666C57.8806 4.23799 57.7504 4.41733 57.7142 4.624C57.6781 4.83067 57.7398 5.04225 57.882 5.19896C58.9705 6.29417 60.8318 6.07687 61.8689 7.2511C62.6035 8.2234 62.0122 9.69831 60.9147 10.1307C59.302 10.7527 57.4708 10.4522 56.1529 9.34934C56.4037 8.95687 56.6231 8.54594 56.8091 8.12025C57.443 9.47444 59.3043 9.86512 60.5787 9.1979C60.8449 9.05157 61.021 8.78671 61.0501 8.48899C61.0791 8.19127 60.9574 7.89851 60.7243 7.70543C59.7007 6.98114 58.3277 6.96578 57.3243 6.1954C56.5739 5.68401 56.2738 4.55367 56.8808 3.82719ZM64.3106 3.98972C65.4303 2.94286 67.1879 2.74575 68.5463 3.40934C69.4793 3.87583 69.8157 4.97962 69.8569 5.96077C69.909 7.39308 69.8656 8.82977 69.8808 10.2643H68.6678C68.67 9.93137 68.6765 9.59629 68.683 9.2634C67.8758 10.5731 66.0162 10.7264 64.7468 10.0759C63.6575 9.52183 63.5533 7.87709 64.4256 7.07552C65.6017 5.9104 67.3962 5.97391 68.9217 6.12941C68.8197 5.46144 68.7112 4.66207 68.0819 4.2788C67.049 3.67653 65.7059 3.94372 64.8423 4.72558C64.6643 4.48029 64.4864 4.235 64.3106 3.98972ZM65.5301 7.32957C64.788 7.74787 64.7077 9.07943 65.5496 9.42546C66.5153 9.7693 67.7608 9.54811 68.3857 8.67427C68.7502 8.19026 68.8392 7.57048 68.9238 6.98573C67.7998 6.89813 66.55 6.71635 65.5301 7.32957Z"
            fill="#0F2D45" />
    </g>
    <path
        d="M5.2 19.768C6.384 19.768 7.41867 20.0027 8.304 20.472C9.18933 20.9413 9.872 21.6027 10.352 22.456C10.8427 23.2987 11.088 24.2747 11.088 25.384C11.088 26.4827 10.8427 27.4587 10.352 28.312C9.872 29.1653 9.184 29.8267 8.288 30.296C7.40267 30.7653 6.37333 31 5.2 31H0.992V19.768H5.2ZM5.024 28.632C6.05867 28.632 6.864 28.3493 7.44 27.784C8.016 27.2187 8.304 26.4187 8.304 25.384C8.304 24.3493 8.016 23.544 7.44 22.968C6.864 22.392 6.05867 22.104 5.024 22.104H3.728V28.632H5.024ZM15.353 19.768V31H12.617V19.768H15.353ZM25.8958 23.384C25.8958 24.0347 25.7464 24.632 25.4478 25.176C25.1491 25.7093 24.6904 26.1413 24.0718 26.472C23.4531 26.8027 22.6851 26.968 21.7678 26.968H20.0718V31H17.3358V19.768H21.7678C22.6638 19.768 23.4211 19.9227 24.0398 20.232C24.6584 20.5413 25.1224 20.968 25.4318 21.512C25.7411 22.056 25.8958 22.68 25.8958 23.384ZM21.5598 24.792C22.0824 24.792 22.4718 24.6693 22.7278 24.424C22.9838 24.1787 23.1118 23.832 23.1118 23.384C23.1118 22.936 22.9838 22.5893 22.7278 22.344C22.4718 22.0987 22.0824 21.976 21.5598 21.976H20.0718V24.792H21.5598ZM30.0561 28.888H33.6401V31H27.3201V19.768H30.0561V28.888ZM40.2571 31.112C39.2011 31.112 38.2305 30.8667 37.3451 30.376C36.4705 29.8853 35.7718 29.2027 35.2491 28.328C34.7371 27.4427 34.4811 26.4507 34.4811 25.352C34.4811 24.2533 34.7371 23.2667 35.2491 22.392C35.7718 21.5173 36.4705 20.8347 37.3451 20.344C38.2305 19.8533 39.2011 19.608 40.2571 19.608C41.3131 19.608 42.2785 19.8533 43.1531 20.344C44.0385 20.8347 44.7318 21.5173 45.2331 22.392C45.7451 23.2667 46.0011 24.2533 46.0011 25.352C46.0011 26.4507 45.7451 27.4427 45.2331 28.328C44.7211 29.2027 44.0278 29.8853 43.1531 30.376C42.2785 30.8667 41.3131 31.112 40.2571 31.112ZM40.2571 28.616C41.1531 28.616 41.8678 28.3173 42.4011 27.72C42.9451 27.1227 43.2171 26.3333 43.2171 25.352C43.2171 24.36 42.9451 23.5707 42.4011 22.984C41.8678 22.3867 41.1531 22.088 40.2571 22.088C39.3505 22.088 38.6251 22.3813 38.0811 22.968C37.5478 23.5547 37.2811 24.3493 37.2811 25.352C37.2811 26.344 37.5478 27.1387 38.0811 27.736C38.6251 28.3227 39.3505 28.616 40.2571 28.616ZM60.2433 19.768V31H57.5073V24.264L54.9953 31H52.7873L50.2593 24.248V31H47.5233V19.768H50.7552L53.9073 27.544L57.0273 19.768H60.2433ZM69.2028 29.016H65.0108L64.3388 31H61.4748L65.5388 19.768H68.7068L72.7708 31H69.8748L69.2028 29.016ZM68.4988 26.904L67.1068 22.792L65.7308 26.904H68.4988ZM90.1183 19.768V31H87.3823V24.264L84.8703 31H82.6623L80.1343 24.248V31H77.3983V19.768H80.6302L83.7823 27.544L86.9023 19.768H90.1183ZM99.0778 29.016H94.8858L94.2138 31H91.3498L95.4138 19.768H98.5818L102.646 31H99.7498L99.0778 29.016ZM98.3738 26.904L96.9818 22.792L95.6058 26.904H98.3738ZM110.395 31L106.619 26.04V31H103.883V19.768H106.619V24.696L110.363 19.768H113.579L109.227 25.272L113.739 31H110.395ZM117.775 21.96V24.232H121.439V26.344H117.775V28.808H121.919V31H115.039V19.768H121.919V21.96H117.775ZM129.423 31L127.087 26.76H126.431V31H123.695V19.768H128.287C129.172 19.768 129.924 19.9227 130.543 20.232C131.172 20.5413 131.642 20.968 131.951 21.512C132.26 22.0453 132.415 22.6427 132.415 23.304C132.415 24.0507 132.202 24.7173 131.775 25.304C131.359 25.8907 130.74 26.3067 129.919 26.552L132.511 31H129.423ZM126.431 24.824H128.127C128.628 24.824 129.002 24.7013 129.247 24.456C129.503 24.2107 129.631 23.864 129.631 23.416C129.631 22.9893 129.503 22.6533 129.247 22.408C129.002 22.1627 128.628 22.04 128.127 22.04H126.431V24.824Z"
        fill="#FF7961" />
    <defs>
        <clipPath id="clip0_3_113">
            <rect width="53" height="11" fill="white" transform="translate(40.5)" />
        </clipPath>
    </defs>
</svg>